<svg id="a" height="128" viewBox="0 0 128 128" width="128" xmlns="http://www.w3.org/2000/svg" data-name="FILLED COLOR"><g><path d="m120.668 72.096c-22.357 9.039-45.752 8.603-70.037 0 1.8-11.76 3.187-16.602 1.111-25.511-.866-3.714-1.104-7.571-.276-11.293 3.485-15.667 17.466-27.381 34.183-27.381 17.731 0 32.385 13.178 34.7 30.275.345 2.549.188 5.141-.316 7.663-2.126 10.651-2.269 15.081.634 26.247z" fill="#454545"/><path d="m120.68 120.71h-70.07l4.83-26.88c1.13-6.29 6.02-11.23 12.29-12.42l2.78-.53 6.18-1.18 8.66-.96.29-.03h.01l8.94.99 5.65 1.08 3.31.63c6.27 1.19 11.16 6.13 12.29 12.42z" fill="#45d1a2"/><path d="m85.345 78.744v6.58l-3.11 2.572c-2.988 2.471-7.5 1.512-9.224-1.962l-2.506-5.05 6.18-1.18z" fill="#3cb58c"/><path d="m100.235 80.783-2.556 5.151c-1.724 3.474-6.235 4.433-9.223 1.962l-3.111-2.573v-6.58l.29-.03h.01l8.94.99z" fill="#3cb58c"/><path d="m91.806 72.096-6.156.362-6.156-.362-2.806 7.605c.395 1.612 1.382 3.084 3.576 4.27 3.343 1.807 7.43 1.807 10.773 0 2.194-1.186 3.182-2.658 3.576-4.27l-2.806-7.605z" fill="#ffc775"/><g fill="#ffc775"><path d="m59.847 48.789v11.311s-9.844-1.097-9.216-8.455c.628-7.359 9.216-2.855 9.216-2.855z"/><path d="m111.452 48.44v11.311s9.844-1.097 9.216-8.455c-.628-7.359-9.216-2.855-9.216-2.855z"/></g><path d="m67.907 27.564c-.276 9.353-3.919 14.603-10.595 19.41l1.73 14.089c.079 1.192.28 2.381.697 3.501 3.214 8.628 13.782 10.704 25.762 10.616 11.98.088 22.548-1.988 25.762-10.617.417-1.12.618-2.309.697-3.501l2.027-15.625c-23.584.131-38.427-5.092-46.08-17.874z" fill="#ffd18d"/></g><g><path d="m7.309 46.487h23.143v12.827c0 5.263-4.273 9.536-9.536 9.536h-4.071c-5.263 0-9.536-4.273-9.536-9.536v-12.827z" fill="#ffa047"/><path d="m23.703 68.851.024 47.05c.001 2.66-2.148 4.821-4.817 4.822-2.66.001-4.821-2.157-4.822-4.817l-.024-47.05 9.64-.005z" fill="#fb4859"/><path d="m26.373 67.131-2.665 12.32-9.64.005-2.677-12.317z"/></g><g><path d="m67.04 98.308v22.406h-48.16v-22.406c0-1.946 1.578-3.524 3.524-3.524h41.112c1.946 0 3.524 1.578 3.524 3.524z" fill="#eceaec"/><g><path d="m33.714 104.776c0 2.988-2.422 5.411-5.411 5.411s-5.411-2.423-5.411-5.411 2.422-5.411 5.411-5.411 5.411 2.422 5.411 5.411z" fill="#fb4859"/><path d="m48.5 104.776c0 2.988-2.423 5.411-5.411 5.411s-5.411-2.423-5.411-5.411 2.422-5.411 5.411-5.411 5.411 2.422 5.411 5.411z" fill="#ffc74d"/><path d="m63.286 104.776c0 2.988-2.422 5.411-5.411 5.411s-5.411-2.423-5.411-5.411 2.422-5.411 5.411-5.411 5.411 2.422 5.411 5.411z" fill="#ffa047"/></g><path d="m18.88 114.654h48.16v6.06h-48.16z" fill="#dbd8db"/></g><g><path d="m118.143 106.636c-.543.099-.904.618-.807 1.162l2.147 11.912h-14.2v-19.996c0-.553-.447-1-1-1s-1 .447-1 1v19.996h-16.939l.002-32.265 1.477 1.225c1.27 1.054 2.838 1.611 4.45 1.611.49 0 .985-.052 1.478-.156 2.111-.45 3.87-1.817 4.825-3.75l2.224-4.473 2.564.49c5.824 1.105 10.443 5.772 11.492 11.616l.86 4.75c.088.482.509.821.983.821.059 0 .119-.005.18-.016.543-.099.903-.619.806-1.163l-.86-4.748c-1.195-6.652-6.455-11.968-13.088-13.226l-6.768-1.295c8.193-.913 16.28-2.957 24.076-6.106.466-.188.719-.692.593-1.179-1.675-6.442-2.271-10.462-2.159-14.612 1.644-1.627 2.387-3.65 2.187-6.032-.113-1.303-.475-2.357-1.044-3.162.12-.641.25-1.301.389-1.994.56-2.766.67-5.454.33-7.992-1.161-8.562-5.387-16.435-11.899-22.166-6.567-5.791-15.017-8.979-23.791-8.979-16.747 0-31.532 11.845-35.156 28.162-.797 3.568-.705 7.52.273 11.752.096.396.169.774.246 1.155-.775.863-1.252 2.049-1.379 3.575-.199 2.317.501 4.298 2.058 5.904-.184 2.882-.681 5.965-1.307 9.822-.233 1.435-.483 2.98-.743 4.667-.073.476.202.934.654 1.095 8.432 2.984 16.772 4.969 24.831 5.938l-7.583 1.447c-6.633 1.258-11.892 6.573-13.088 13.226l-.023.127h-29.714l-.009-14.23 2.566-11.861c2.625-1.989 4.185-5.084 4.175-8.379v-12.829c0-.266-.105-.52-.293-.707s-.441-.293-.707-.293l-23.15.01c-.266 0-.52.105-.708.293-.186.189-.292.442-.292.708l.01 12.829c0 3.303 1.562 6.396 4.179 8.379l2.582 11.876.019 36.335c0 3.203 2.611 5.809 5.82 5.809.066 0 .136-.006.206-.01h11.134c.553 0 1-.447 1-1s-.447-1-1-1h-10.37v-4.06h46.118v4.06h-12.548c-.553 0-1 .447-1 1s.447 1 1 1h13.528c.007 0 .012.004.019.004s.013-.004.019-.004h18.307c.007 0 .012.004.019.004s.012-.004.019-.004h18.901c.007 0 .012.004.019.004s.012-.004.019-.004h16.377c.296 0 .577-.132.768-.358.189-.228.269-.527.217-.819l-2.359-13.09c-.098-.543-.612-.903-1.162-.807zm-59.766-59.201c6.357-4.71 9.488-9.766 10.317-16.862 7.902 10.892 21.716 15.829 44.154 15.867l-1.681 12.974c-.002.01-.002.02-.004.03l-.201 1.553c-.082 1.237-.29 2.29-.636 3.219-2.53 6.793-10.205 9.968-24.145 9.968-.226 0-.457-.001-.688-.003-.23.002-.459.003-.687.003-13.924 0-21.6-3.176-24.129-9.969-.348-.931-.555-1.983-.642-3.274zm26.307 28.748c.272 0 .543-.001.81-.003 2.1.014 4.371-.034 6.675-.211l1.393 3.78c-.422 1.397-1.382 2.464-2.997 3.341-1.576.852-3.356 1.296-5.192 1.23-1.613-.036-3.217-.462-4.635-1.229-1.618-.879-2.578-1.946-2.998-3.343l1.382-3.749c1.909.137 3.789.183 5.562.183zm-8.672 4.665c.643 1.656 1.881 2.974 3.773 4.002.993.537 2.065.916 3.167 1.161l-1.347 1.118c-1.187.982-2.736 1.357-4.239 1.04-1.51-.321-2.77-1.3-3.458-2.683l-1.916-3.871 4.021-.767zm20.772 4.638c-.684 1.383-1.94 2.36-3.45 2.683-1.502.318-3.05-.057-4.234-1.038l-1.24-1.029c1.278-.231 2.518-.638 3.659-1.254 1.89-1.026 3.127-2.344 3.771-4l3.47.666zm22.699-13.99c-7.992 3.141-16.287 5.097-24.677 5.842l-.578-1.567c7.641-.876 15.233-3.502 17.974-10.859.414-1.112.661-2.351.75-3.721l.093-.719c1.129-.257 2.828-.767 4.43-1.708.054 3.632.646 7.359 2.008 12.733zm-1.629-15.461c-.023.019-.045.036-.066.058-1.358 1.205-3.138 1.88-4.466 2.246l1.299-10.01c1.49-.367 3.238-.471 4.2.624.472.52.759 1.335.853 2.421.158 1.886-.438 3.411-1.821 4.661zm-65.407-20.528c3.423-15.411 17.387-26.597 33.204-26.597 8.286 0 16.266 3.012 22.469 8.48 6.152 5.414 10.144 12.849 11.239 20.933.31 2.315.207 4.781-.309 7.33-.062.311-.121.61-.18.91-1.07-.494-2.411-.603-3.979-.324l.087-.673c.038-.286-.051-.575-.242-.791-.189-.215-.463-.338-.749-.338h-.006c-.291.002-.577.002-.866.002-23.459 0-37.159-5.379-44.35-17.39-.228-.382-.681-.564-1.11-.454-.43.112-.734.494-.748.939-.282 9.58-4.273 14.375-10.179 18.628-.152.109-.265.257-.336.423-1.376-.248-2.588-.191-3.594.173-.03-.133-.052-.26-.084-.394-.909-3.93-1-7.582-.268-10.858zm-.82 16.216c.105-1.256.477-2.153 1.114-2.674.998-.832 2.608-.673 3.771-.403l1.226 9.972c-1.309-.386-3.051-1.078-4.34-2.274-1.352-1.243-1.931-2.754-1.77-4.621zm.733 15.878c.537-3.311.98-6.059 1.22-8.632 1.531.952 3.197 1.499 4.421 1.795l.045.364c.094 1.431.342 2.669.757 3.784 2.774 7.447 10.531 10.057 18.257 10.901l-.488 1.323c-8.036-.865-16.377-2.776-24.826-5.705.214-1.365.42-2.636.614-3.83zm15.559 14.792 2.033-.388 2.164 4.37c.962 1.935 2.724 3.302 4.834 3.75.49.104.983.156 1.473.156 1.613 0 3.183-.558 4.458-1.611l1.467-1.217-.002 32.257h-16.304v-21.4c0-2.497-2.028-4.529-4.521-4.529h-7.045c1.127-5.735 5.694-10.298 11.443-11.388zm-59.609-23.074-.009-11.829 21.149-.01v11.832c.008 2.687-1.273 5.208-3.426 6.818h-1.528s1.347-4.725 1.347-4.725c.151-.531-.156-1.085-.687-1.236-.529-.151-1.083.156-1.236.688l-1.504 5.275h-2.534s-.003-7.462-.003-7.462c0-.553-.448-1-1-1s-1 .448-1 1l.003 7.464h-2.239s-1.596-4.792-1.596-4.792c-.175-.524-.738-.803-1.266-.633-.523.175-.807.741-.633 1.266l1.386 4.162h-1.803c-2.142-1.603-3.421-4.125-3.421-6.818zm6.611 8.817s0 0 0 0l8.25-.004h1.962s-2.232 10.318-2.232 10.318l-8.027.005-2.243-10.318h2.289zm.169 47.773-.019-35.454 7.64-.004.008 13.329h-.319c-2.492 0-4.52 2.032-4.52 4.529v21.252c-1.604-.452-2.79-1.909-2.79-3.652zm4.79-2.259v-15.341c0-1.395 1.131-2.529 2.52-2.529h41.119c1.39 0 2.521 1.135 2.521 2.529v1.196c-.015.069-.042.134-.042.208v13.936h-46.118z"/><path d="m71.092 56.085c1.171 0 2.121-1.536 2.121-3.43s-.949-3.43-2.121-3.43-2.121 1.536-2.121 3.43.949 3.43 2.121 3.43z"/><path d="m100.207 56.085c1.171 0 2.121-1.536 2.121-3.43s-.949-3.43-2.121-3.43-2.121 1.536-2.121 3.43.949 3.43 2.121 3.43z"/><path d="m85.642 64.774c2.614 0 4.966-1.656 5.852-4.122.187-.52-.083-1.092-.603-1.279-.518-.186-1.092.083-1.279.604-.601 1.673-2.196 2.798-3.97 2.798s-3.368-1.125-3.97-2.798c-.188-.521-.764-.79-1.279-.604-.52.188-.79.76-.603 1.279.887 2.466 3.238 4.122 5.852 4.122z"/><path d="m28.304 98.365c-3.535 0-6.411 2.876-6.411 6.41s2.876 6.411 6.411 6.411 6.41-2.876 6.41-6.411-2.876-6.41-6.41-6.41zm0 10.821c-2.433 0-4.411-1.978-4.411-4.411s1.978-4.41 4.411-4.41 4.41 1.979 4.41 4.41-1.978 4.411-4.41 4.411z"/><path d="m43.089 98.365c-3.534 0-6.41 2.876-6.41 6.41s2.876 6.411 6.41 6.411 6.411-2.876 6.411-6.411-2.876-6.41-6.411-6.41zm0 10.821c-2.432 0-4.41-1.978-4.41-4.411s1.978-4.41 4.41-4.41 4.411 1.979 4.411 4.41-1.979 4.411-4.411 4.411z"/><path d="m57.875 98.365c-3.535 0-6.411 2.876-6.411 6.41s2.876 6.411 6.411 6.411 6.411-2.876 6.411-6.411-2.876-6.41-6.411-6.41zm0 10.821c-2.433 0-4.411-1.978-4.411-4.411s1.978-4.41 4.411-4.41 4.411 1.979 4.411 4.41-1.978 4.411-4.411 4.411z"/><path d="m44.33 119.71h-4.97c-.553 0-1 .447-1 1s.447 1 1 1h4.97c.553 0 1-.447 1-1s-.447-1-1-1z"/></g></svg>